<svg width="117" height="42" viewBox="0 0 117 42" fill="none" xmlns="http://www.w3.org/2000/svg">
<path d="M1.98153 35V8.81818H19.8537V13.9574H8.30966V19.3267H18.7159V24.4787H8.30966V35H1.98153Z" fill="#1CEBB9"/>
<path d="M34.821 8.81818H41.1364V25.706C41.1364 27.6577 40.6719 29.358 39.7429 30.8068C38.8139 32.2472 37.5185 33.3636 35.8565 34.1562C34.1946 34.9403 32.2642 35.3324 30.0653 35.3324C27.8409 35.3324 25.8977 34.9403 24.2358 34.1562C22.5739 33.3636 21.2827 32.2472 20.3622 30.8068C19.4418 29.358 18.9815 27.6577 18.9815 25.706V8.81818H25.3097V25.1562C25.3097 26.0597 25.5057 26.8651 25.8977 27.5724C26.2983 28.2798 26.8565 28.8338 27.5724 29.2344C28.2884 29.6349 29.1193 29.8352 30.0653 29.8352C31.0114 29.8352 31.8381 29.6349 32.5455 29.2344C33.2614 28.8338 33.8196 28.2798 34.2202 27.5724C34.6207 26.8651 34.821 26.0597 34.821 25.1562V8.81818Z" fill="white"/>
<path d="M58.2642 8.81818V35H52.8949L42.4759 19.8892H42.3097V35H35.9815V8.81818H41.4276L51.7315 23.9034H51.9489V8.81818H58.2642Z" fill="white"/>
<path d="M57.9815 35V8.81818H75.8537V13.9574H64.3097V19.3267H74.7159V24.4787H64.3097V35H57.9815Z" fill="#1CEBB9"/>
<path d="M90.821 8.81818H97.1364V25.706C97.1364 27.6577 96.6719 29.358 95.7429 30.8068C94.8139 32.2472 93.5185 33.3636 91.8565 34.1562C90.1946 34.9403 88.2642 35.3324 86.0653 35.3324C83.8409 35.3324 81.8977 34.9403 80.2358 34.1562C78.5739 33.3636 77.2827 32.2472 76.3622 30.8068C75.4418 29.358 74.9815 27.6577 74.9815 25.706V8.81818H81.3097V25.1562C81.3097 26.0597 81.5057 26.8651 81.8977 27.5724C82.2983 28.2798 82.8565 28.8338 83.5724 29.2344C84.2884 29.6349 85.1193 29.8352 86.0653 29.8352C87.0114 29.8352 87.8381 29.6349 88.5455 29.2344C89.2614 28.8338 89.8196 28.2798 90.2202 27.5724C90.6207 26.8651 90.821 26.0597 90.821 25.1562V8.81818Z" fill="white"/>
<path d="M114.264 8.81818V35H108.895L98.4759 19.8892H98.3097V35H91.9815V8.81818H97.4276L107.732 23.9034H107.949V8.81818H114.264Z" fill="white"/>
</svg>
