<svg width="50" height="49" viewBox="0 0 50 49" fill="none" xmlns="http://www.w3.org/2000/svg">
<path d="M0 5.05835C0 2.29693 2.23858 0.0583496 5 0.0583496H50V48.8372H5C2.23858 48.8372 0 46.5986 0 43.8372V5.05835Z" fill="#6E6E6E"/>
<path d="M0 29.3257H22V48.8372H5C2.23858 48.8372 0 46.5986 0 43.8372V29.3257Z" fill="#393939"/>
<path d="M28 29.3257H50V48.8372H28V29.3257Z" fill="#393939"/>
<path d="M0 5.05836C0 2.29693 2.23858 0.0583496 5 0.0583496H38V22.4966H0V5.05836Z" fill="#393939"/>
<path d="M45 0.0583496H50V22.4966H45V0.0583496Z" fill="#393939"/>
<path d="M33 22.4966C33 27.3677 27.461 32.4407 25.601 34.0074C25.4277 34.1346 25.2168 34.2033 25 34.2033C24.7832 34.2033 24.5723 34.1346 24.399 34.0074C22.539 32.4407 17 27.3677 17 22.4966C17 20.4267 17.8429 18.4416 19.3431 16.9779C20.8434 15.5143 22.8783 14.692 25 14.692C27.1217 14.692 29.1566 15.5143 30.6569 16.9779C32.1571 18.4416 33 20.4267 33 22.4966Z" stroke="white" stroke-width="2" stroke-linecap="round" stroke-linejoin="round"/>
<path d="M25 25.4233C26.6569 25.4233 28 24.113 28 22.4966C28 20.8802 26.6569 19.5699 25 19.5699C23.3431 19.5699 22 20.8802 22 22.4966C22 24.113 23.3431 25.4233 25 25.4233Z" stroke="white" stroke-width="2" stroke-linecap="round" stroke-linejoin="round"/>
</svg>
